<!-- Panel 1 -->
<?xml version="1.0" encoding="UTF-8"?>
<svg xmlns="http://www.w3.org/2000/svg" width="1220mm" height="2440mm" viewBox="0 0 1220 2440">
<title>Nichoir - Plan de coupe 1220 x 2440 mm</title>
<rect x="0" y="0" width="1220" height="2440" fill="none" stroke="#000" stroke-width="1"/>
<line x1="200" y1="0" x2="200" y2="2440" stroke="#ddd" stroke-width="0.3"/>
<line x1="400" y1="0" x2="400" y2="2440" stroke="#ddd" stroke-width="0.3"/>
<line x1="600" y1="0" x2="600" y2="2440" stroke="#ddd" stroke-width="0.3"/>
<line x1="800" y1="0" x2="800" y2="2440" stroke="#ddd" stroke-width="0.3"/>
<line x1="1000" y1="0" x2="1000" y2="2440" stroke="#ddd" stroke-width="0.3"/>
<line x1="1200" y1="0" x2="1200" y2="2440" stroke="#ddd" stroke-width="0.3"/>
<line x1="0" y1="200" x2="1220" y2="200" stroke="#ddd" stroke-width="0.3"/>
<line x1="0" y1="400" x2="1220" y2="400" stroke="#ddd" stroke-width="0.3"/>
<line x1="0" y1="600" x2="1220" y2="600" stroke="#ddd" stroke-width="0.3"/>
<line x1="0" y1="800" x2="1220" y2="800" stroke="#ddd" stroke-width="0.3"/>
<line x1="0" y1="1000" x2="1220" y2="1000" stroke="#ddd" stroke-width="0.3"/>
<line x1="0" y1="1200" x2="1220" y2="1200" stroke="#ddd" stroke-width="0.3"/>
<line x1="0" y1="1400" x2="1220" y2="1400" stroke="#ddd" stroke-width="0.3"/>
<line x1="0" y1="1600" x2="1220" y2="1600" stroke="#ddd" stroke-width="0.3"/>
<line x1="0" y1="1800" x2="1220" y2="1800" stroke="#ddd" stroke-width="0.3"/>
<line x1="0" y1="2000" x2="1220" y2="2000" stroke="#ddd" stroke-width="0.3"/>
<line x1="0" y1="2200" x2="1220" y2="2200" stroke="#ddd" stroke-width="0.3"/>
<line x1="0" y1="2400" x2="1220" y2="2400" stroke="#ddd" stroke-width="0.3"/>
<polygon points="5,281.0166030567768 165,281.0166030567768 165,61.01660305677677 85,5 5,61.01660305677677" fill="#d4a57440" stroke="#000" stroke-width="0.5"/>
<text x="85" y="136.60830152838838" font-family="sans-serif" font-size="12.8" text-anchor="middle" fill="#000">calc.cuts.facade 1</text>
<text x="85" y="153.2483015283884" font-family="sans-serif" font-size="10.240000000000002" text-anchor="middle" fill="#555">160×276 mm</text>
<polygon points="170,281.0166030567768 330,281.0166030567768 330,61.01660305677677 250,5 170,61.01660305677677" fill="#d4a57440" stroke="#000" stroke-width="0.5"/>
<text x="250" y="136.60830152838838" font-family="sans-serif" font-size="12.8" text-anchor="middle" fill="#000">calc.cuts.facade 2</text>
<text x="250" y="153.2483015283884" font-family="sans-serif" font-size="10.240000000000002" text-anchor="middle" fill="#555">160×276 mm</text>
<rect x="335" y="5" width="136" height="220" fill="#c4946440" stroke="#000" stroke-width="0.5"/>
<text x="403" y="109.56" font-family="sans-serif" font-size="10.88" text-anchor="middle" fill="#000">calc.cuts.side G</text>
<text x="403" y="123.70400000000001" font-family="sans-serif" font-size="8.704" text-anchor="middle" fill="#555">136×220 mm</text>
<rect x="476" y="5" width="136" height="220" fill="#c4946440" stroke="#000" stroke-width="0.5"/>
<text x="544" y="109.56" font-family="sans-serif" font-size="10.88" text-anchor="middle" fill="#000">calc.cuts.side D</text>
<text x="544" y="123.70400000000001" font-family="sans-serif" font-size="8.704" text-anchor="middle" fill="#555">136×220 mm</text>
<rect x="617" y="5" width="146.28520476376016" height="220" fill="#9e704440" stroke="#000" stroke-width="0.5"/>
<text x="690.1426023818801" y="109.1485918094496" font-family="sans-serif" font-size="11.702816381100813" text-anchor="middle" fill="#000">calc.cuts.roofL</text>
<text x="690.1426023818801" y="124.36225310488065" font-family="sans-serif" font-size="9.36225310488065" text-anchor="middle" fill="#555">146×220 mm</text>
<rect x="768.2852047637601" y="5" width="134.28520476376016" height="220" fill="#9e704440" stroke="#000" stroke-width="0.5"/>
<text x="835.4278071456403" y="109.62859180944959" font-family="sans-serif" font-size="10.742816381100813" text-anchor="middle" fill="#000">calc.cuts.roofR</text>
<text x="835.4278071456403" y="123.59425310488065" font-family="sans-serif" font-size="8.59425310488065" text-anchor="middle" fill="#555">134×220 mm</text>
<rect x="907.5704095275203" y="5" width="136" height="136" fill="#b4845440" stroke="#000" stroke-width="0.5"/>
<text x="975.5704095275203" y="67.56" font-family="sans-serif" font-size="10.88" text-anchor="middle" fill="#000">calc.cuts.bottom</text>
<text x="975.5704095275203" y="81.70400000000001" font-family="sans-serif" font-size="8.704" text-anchor="middle" fill="#555">136×136 mm</text>
<rect x="1048.5704095275203" y="5" width="40" height="40" fill="#e8c08840" stroke="#000" stroke-width="0.5"/>
<text x="1068.5704095275203" y="21" font-family="sans-serif" font-size="8" text-anchor="middle" fill="#000">calc.cuts.door</text>
<text x="1068.5704095275203" y="31.4" font-family="sans-serif" font-size="6.4" text-anchor="middle" fill="#555">40×40 mm</text>
</svg>
