<!-- Panel 1 -->
<?xml version="1.0" encoding="UTF-8"?>
<svg xmlns="http://www.w3.org/2000/svg" width="1220mm" height="2440mm" viewBox="0 0 1220 2440">
<title>Nichoir - Plan de coupe 1220 x 2440 mm</title>
<rect x="0" y="0" width="1220" height="2440" fill="none" stroke="#000" stroke-width="1"/>
<line x1="200" y1="0" x2="200" y2="2440" stroke="#ddd" stroke-width="0.3"/>
<line x1="400" y1="0" x2="400" y2="2440" stroke="#ddd" stroke-width="0.3"/>
<line x1="600" y1="0" x2="600" y2="2440" stroke="#ddd" stroke-width="0.3"/>
<line x1="800" y1="0" x2="800" y2="2440" stroke="#ddd" stroke-width="0.3"/>
<line x1="1000" y1="0" x2="1000" y2="2440" stroke="#ddd" stroke-width="0.3"/>
<line x1="1200" y1="0" x2="1200" y2="2440" stroke="#ddd" stroke-width="0.3"/>
<line x1="0" y1="200" x2="1220" y2="200" stroke="#ddd" stroke-width="0.3"/>
<line x1="0" y1="400" x2="1220" y2="400" stroke="#ddd" stroke-width="0.3"/>
<line x1="0" y1="600" x2="1220" y2="600" stroke="#ddd" stroke-width="0.3"/>
<line x1="0" y1="800" x2="1220" y2="800" stroke="#ddd" stroke-width="0.3"/>
<line x1="0" y1="1000" x2="1220" y2="1000" stroke="#ddd" stroke-width="0.3"/>
<line x1="0" y1="1200" x2="1220" y2="1200" stroke="#ddd" stroke-width="0.3"/>
<line x1="0" y1="1400" x2="1220" y2="1400" stroke="#ddd" stroke-width="0.3"/>
<line x1="0" y1="1600" x2="1220" y2="1600" stroke="#ddd" stroke-width="0.3"/>
<line x1="0" y1="1800" x2="1220" y2="1800" stroke="#ddd" stroke-width="0.3"/>
<line x1="0" y1="2000" x2="1220" y2="2000" stroke="#ddd" stroke-width="0.3"/>
<line x1="0" y1="2200" x2="1220" y2="2200" stroke="#ddd" stroke-width="0.3"/>
<line x1="0" y1="2400" x2="1220" y2="2400" stroke="#ddd" stroke-width="0.3"/>
<polygon points="5,328.01867843887385 145,328.01867843887385 165,68.01867843887385 75,5 -15,68.01867843887385" fill="#d4a57440" stroke="#000" stroke-width="0.5"/>
<text x="95" y="159.30933921943694" font-family="sans-serif" font-size="14.4" text-anchor="middle" fill="#000">calc.cuts.facade 1</text>
<text x="95" y="178.02933921943693" font-family="sans-serif" font-size="11.520000000000001" text-anchor="middle" fill="#555">180×323 mm</text>
<polygon points="190,328.01867843887385 330,328.01867843887385 350,68.01867843887385 260,5 170,68.01867843887385" fill="#d4a57440" stroke="#000" stroke-width="0.5"/>
<text x="280" y="159.30933921943694" font-family="sans-serif" font-size="14.4" text-anchor="middle" fill="#000">calc.cuts.facade 2</text>
<text x="280" y="178.02933921943693" font-family="sans-serif" font-size="11.520000000000001" text-anchor="middle" fill="#555">180×323 mm</text>
<rect x="375" y="5" width="136" height="260.76809620810593" fill="#c4946440" stroke="#000" stroke-width="0.5"/>
<text x="443" y="129.94404810405297" font-family="sans-serif" font-size="10.88" text-anchor="middle" fill="#000">calc.cuts.side G</text>
<text x="443" y="144.08804810405297" font-family="sans-serif" font-size="8.704" text-anchor="middle" fill="#555">136×261 mm</text>
<rect x="516" y="5" width="136" height="260.76809620810593" fill="#c4946440" stroke="#000" stroke-width="0.5"/>
<text x="584" y="129.94404810405297" font-family="sans-serif" font-size="10.88" text-anchor="middle" fill="#000">calc.cuts.side D</text>
<text x="584" y="144.08804810405297" font-family="sans-serif" font-size="8.704" text-anchor="middle" fill="#555">136×261 mm</text>
<rect x="657" y="5" width="158.4929506513747" height="220" fill="#9e704440" stroke="#000" stroke-width="0.5"/>
<text x="736.2464753256874" y="108.66028197394502" font-family="sans-serif" font-size="12.679436052109978" text-anchor="middle" fill="#000">calc.cuts.roofL</text>
<text x="736.2464753256874" y="125.14354884168799" font-family="sans-serif" font-size="10.143548841687982" text-anchor="middle" fill="#555">158×220 mm</text>
<rect x="820.4929506513747" y="5" width="146.4929506513747" height="220" fill="#9e704440" stroke="#000" stroke-width="0.5"/>
<text x="893.7394259770621" y="109.14028197394501" font-family="sans-serif" font-size="11.719436052109977" text-anchor="middle" fill="#000">calc.cuts.roofR</text>
<text x="893.7394259770621" y="124.37554884168799" font-family="sans-serif" font-size="9.375548841687982" text-anchor="middle" fill="#555">146×220 mm</text>
<rect x="971.9859013027494" y="5" width="116" height="136" fill="#b4845440" stroke="#000" stroke-width="0.5"/>
<text x="1029.9859013027494" y="68.36" font-family="sans-serif" font-size="9.28" text-anchor="middle" fill="#000">calc.cuts.bottom</text>
<text x="1029.9859013027494" y="80.424" font-family="sans-serif" font-size="7.4239999999999995" text-anchor="middle" fill="#555">116×136 mm</text>
</svg>
