<!-- Panel 1 -->
<?xml version="1.0" encoding="UTF-8"?>
<svg xmlns="http://www.w3.org/2000/svg" width="1220mm" height="2440mm" viewBox="0 0 1220 2440">
<title>Nichoir - Plan de coupe 1220 x 2440 mm</title>
<rect x="0" y="0" width="1220" height="2440" fill="none" stroke="#000" stroke-width="1"/>
<line x1="200" y1="0" x2="200" y2="2440" stroke="#ddd" stroke-width="0.3"/>
<line x1="400" y1="0" x2="400" y2="2440" stroke="#ddd" stroke-width="0.3"/>
<line x1="600" y1="0" x2="600" y2="2440" stroke="#ddd" stroke-width="0.3"/>
<line x1="800" y1="0" x2="800" y2="2440" stroke="#ddd" stroke-width="0.3"/>
<line x1="1000" y1="0" x2="1000" y2="2440" stroke="#ddd" stroke-width="0.3"/>
<line x1="1200" y1="0" x2="1200" y2="2440" stroke="#ddd" stroke-width="0.3"/>
<line x1="0" y1="200" x2="1220" y2="200" stroke="#ddd" stroke-width="0.3"/>
<line x1="0" y1="400" x2="1220" y2="400" stroke="#ddd" stroke-width="0.3"/>
<line x1="0" y1="600" x2="1220" y2="600" stroke="#ddd" stroke-width="0.3"/>
<line x1="0" y1="800" x2="1220" y2="800" stroke="#ddd" stroke-width="0.3"/>
<line x1="0" y1="1000" x2="1220" y2="1000" stroke="#ddd" stroke-width="0.3"/>
<line x1="0" y1="1200" x2="1220" y2="1200" stroke="#ddd" stroke-width="0.3"/>
<line x1="0" y1="1400" x2="1220" y2="1400" stroke="#ddd" stroke-width="0.3"/>
<line x1="0" y1="1600" x2="1220" y2="1600" stroke="#ddd" stroke-width="0.3"/>
<line x1="0" y1="1800" x2="1220" y2="1800" stroke="#ddd" stroke-width="0.3"/>
<line x1="0" y1="2000" x2="1220" y2="2000" stroke="#ddd" stroke-width="0.3"/>
<line x1="0" y1="2200" x2="1220" y2="2200" stroke="#ddd" stroke-width="0.3"/>
<line x1="0" y1="2400" x2="1220" y2="2400" stroke="#ddd" stroke-width="0.3"/>
<rect x="5" y="5" width="291.17691453623974" height="260" fill="#9e704440" stroke="#000" stroke-width="0.5"/>
<text x="150.58845726811987" y="125" font-family="sans-serif" font-size="20" text-anchor="middle" fill="#000">calc.cuts.roofL</text>
<text x="150.58845726811987" y="151" font-family="sans-serif" font-size="16" text-anchor="middle" fill="#555">291×260 mm</text>
<rect x="306.17691453623974" y="5" width="291.17691453623974" height="260" fill="#9e704440" stroke="#000" stroke-width="0.5"/>
<text x="451.7653718043596" y="125" font-family="sans-serif" font-size="20" text-anchor="middle" fill="#000">calc.cuts.roofR</text>
<text x="451.7653718043596" y="151" font-family="sans-serif" font-size="16" text-anchor="middle" fill="#555">291×260 mm</text>
<rect x="607.3538290724795" y="5" width="124" height="220" fill="#c4946440" stroke="#000" stroke-width="0.5"/>
<text x="669.3538290724795" y="110.04" font-family="sans-serif" font-size="9.92" text-anchor="middle" fill="#000">calc.cuts.side G</text>
<text x="669.3538290724795" y="122.936" font-family="sans-serif" font-size="7.936" text-anchor="middle" fill="#555">124×220 mm</text>
<rect x="741.3538290724795" y="5" width="124" height="220" fill="#c4946440" stroke="#000" stroke-width="0.5"/>
<text x="803.3538290724795" y="110.04" font-family="sans-serif" font-size="9.92" text-anchor="middle" fill="#000">calc.cuts.side D</text>
<text x="803.3538290724795" y="122.936" font-family="sans-serif" font-size="7.936" text-anchor="middle" fill="#555">124×220 mm</text>
<rect x="875.3538290724795" y="5" width="124" height="124" fill="#b4845440" stroke="#000" stroke-width="0.5"/>
<text x="937.3538290724795" y="62.04" font-family="sans-serif" font-size="9.92" text-anchor="middle" fill="#000">calc.cuts.bottom</text>
<text x="937.3538290724795" y="74.936" font-family="sans-serif" font-size="7.936" text-anchor="middle" fill="#555">124×124 mm</text>
<polygon points="5,633.5640646055101 165,633.5640646055101 165,413.5640646055101 85,275 5,413.5640646055101" fill="#d4a57440" stroke="#000" stroke-width="0.5"/>
<text x="85" y="447.8820323027551" font-family="sans-serif" font-size="12.8" text-anchor="middle" fill="#000">calc.cuts.facade 1</text>
<text x="85" y="464.52203230275506" font-family="sans-serif" font-size="10.240000000000002" text-anchor="middle" fill="#555">160×359 mm</text>
<polygon points="175,633.5640646055101 335,633.5640646055101 335,413.5640646055101 255,275 175,413.5640646055101" fill="#d4a57440" stroke="#000" stroke-width="0.5"/>
<text x="255" y="447.8820323027551" font-family="sans-serif" font-size="12.8" text-anchor="middle" fill="#000">calc.cuts.facade 2</text>
<text x="255" y="464.52203230275506" font-family="sans-serif" font-size="10.240000000000002" text-anchor="middle" fill="#555">160×359 mm</text>
</svg>
