<!-- Panel 1 -->
<?xml version="1.0" encoding="UTF-8"?>
<svg xmlns="http://www.w3.org/2000/svg" width="1220mm" height="2440mm" viewBox="0 0 1220 2440">
<title>Nichoir - Plan de coupe 1220 x 2440 mm</title>
<rect x="0" y="0" width="1220" height="2440" fill="none" stroke="#000" stroke-width="1"/>
<line x1="200" y1="0" x2="200" y2="2440" stroke="#ddd" stroke-width="0.3"/>
<line x1="400" y1="0" x2="400" y2="2440" stroke="#ddd" stroke-width="0.3"/>
<line x1="600" y1="0" x2="600" y2="2440" stroke="#ddd" stroke-width="0.3"/>
<line x1="800" y1="0" x2="800" y2="2440" stroke="#ddd" stroke-width="0.3"/>
<line x1="1000" y1="0" x2="1000" y2="2440" stroke="#ddd" stroke-width="0.3"/>
<line x1="1200" y1="0" x2="1200" y2="2440" stroke="#ddd" stroke-width="0.3"/>
<line x1="0" y1="200" x2="1220" y2="200" stroke="#ddd" stroke-width="0.3"/>
<line x1="0" y1="400" x2="1220" y2="400" stroke="#ddd" stroke-width="0.3"/>
<line x1="0" y1="600" x2="1220" y2="600" stroke="#ddd" stroke-width="0.3"/>
<line x1="0" y1="800" x2="1220" y2="800" stroke="#ddd" stroke-width="0.3"/>
<line x1="0" y1="1000" x2="1220" y2="1000" stroke="#ddd" stroke-width="0.3"/>
<line x1="0" y1="1200" x2="1220" y2="1200" stroke="#ddd" stroke-width="0.3"/>
<line x1="0" y1="1400" x2="1220" y2="1400" stroke="#ddd" stroke-width="0.3"/>
<line x1="0" y1="1600" x2="1220" y2="1600" stroke="#ddd" stroke-width="0.3"/>
<line x1="0" y1="1800" x2="1220" y2="1800" stroke="#ddd" stroke-width="0.3"/>
<line x1="0" y1="2000" x2="1220" y2="2000" stroke="#ddd" stroke-width="0.3"/>
<line x1="0" y1="2200" x2="1220" y2="2200" stroke="#ddd" stroke-width="0.3"/>
<line x1="0" y1="2400" x2="1220" y2="2400" stroke="#ddd" stroke-width="0.3"/>
<polygon points="5,363.5640646055101 165,363.5640646055101 165,143.5640646055101 85,5 5,143.5640646055101" fill="#d4a57440" stroke="#000" stroke-width="0.5"/>
<text x="85" y="177.88203230275505" font-family="sans-serif" font-size="12.8" text-anchor="middle" fill="#000">calc.cuts.facade 1</text>
<text x="85" y="194.52203230275506" font-family="sans-serif" font-size="10.240000000000002" text-anchor="middle" fill="#555">160×359 mm</text>
<polygon points="170,363.5640646055101 330,363.5640646055101 330,143.5640646055101 250,5 170,143.5640646055101" fill="#d4a57440" stroke="#000" stroke-width="0.5"/>
<text x="250" y="177.88203230275505" font-family="sans-serif" font-size="12.8" text-anchor="middle" fill="#000">calc.cuts.facade 2</text>
<text x="250" y="194.52203230275506" font-family="sans-serif" font-size="10.240000000000002" text-anchor="middle" fill="#555">160×359 mm</text>
<rect x="335" y="5" width="291.17691453623974" height="260" fill="#9e704440" stroke="#000" stroke-width="0.5"/>
<text x="480.5884572681199" y="125" font-family="sans-serif" font-size="20" text-anchor="middle" fill="#000">calc.cuts.roofL</text>
<text x="480.5884572681199" y="151" font-family="sans-serif" font-size="16" text-anchor="middle" fill="#555">291×260 mm</text>
<rect x="631.1769145362398" y="5" width="291.17691453623974" height="260" fill="#9e704440" stroke="#000" stroke-width="0.5"/>
<text x="776.7653718043597" y="125" font-family="sans-serif" font-size="20" text-anchor="middle" fill="#000">calc.cuts.roofR</text>
<text x="776.7653718043597" y="151" font-family="sans-serif" font-size="16" text-anchor="middle" fill="#555">291×260 mm</text>
<rect x="927.3538290724796" y="5" width="124" height="220" fill="#c4946440" stroke="#000" stroke-width="0.5"/>
<text x="989.3538290724796" y="110.04" font-family="sans-serif" font-size="9.92" text-anchor="middle" fill="#000">calc.cuts.side G</text>
<text x="989.3538290724796" y="122.936" font-family="sans-serif" font-size="7.936" text-anchor="middle" fill="#555">124×220 mm</text>
<rect x="1056.3538290724796" y="5" width="124" height="220" fill="#c4946440" stroke="#000" stroke-width="0.5"/>
<text x="1118.3538290724796" y="110.04" font-family="sans-serif" font-size="9.92" text-anchor="middle" fill="#000">calc.cuts.side D</text>
<text x="1118.3538290724796" y="122.936" font-family="sans-serif" font-size="7.936" text-anchor="middle" fill="#555">124×220 mm</text>
<rect x="5" y="368.5640646055101" width="124" height="124" fill="#b4845440" stroke="#000" stroke-width="0.5"/>
<text x="67" y="425.60406460551013" font-family="sans-serif" font-size="9.92" text-anchor="middle" fill="#000">calc.cuts.bottom</text>
<text x="67" y="438.5000646055101" font-family="sans-serif" font-size="7.936" text-anchor="middle" fill="#555">124×124 mm</text>
</svg>
